<svg xmlns="http://www.w3.org/2000/svg" xmlns:xlink="http://www.w3.org/1999/xlink" width="114.44" height="53" viewBox="0 0 114.44 53">
  <defs>
    <filter id="Rectangle_15" x="0" y="0" width="114.44" height="53" filterUnits="userSpaceOnUse">
      <feOffset dx="1" dy="1" input="SourceAlpha"/>
      <feGaussianBlur stdDeviation="3.5" result="blur"/>
      <feFlood flood-opacity="0.122"/>
      <feComposite operator="in" in2="blur"/>
    </filter>
    <filter id="Rectangle_15-2" x="0" y="0" width="114.44" height="53" filterUnits="userSpaceOnUse">
      <feOffset dx="-4" dy="8" input="SourceAlpha"/>
      <feGaussianBlur stdDeviation="5" result="blur-2"/>
      <feFlood flood-opacity="0.039" result="color"/>
      <feComposite operator="out" in="SourceGraphic" in2="blur-2"/>
      <feComposite operator="in" in="color"/>
      <feComposite operator="in" in2="SourceGraphic"/>
    </filter>
    <clipPath id="clip-path">
      <rect id="Rectangle_17" data-name="Rectangle 17" width="64.875" height="16.113" fill="none"/>
    </clipPath>
  </defs>
  <g id="Group_340" data-name="Group 340" transform="translate(9.5 9.5)">
    <g data-type="innerShadowGroup">
      <g transform="matrix(1, 0, 0, 1, -9.5, -9.5)" filter="url(#Rectangle_15)">
        <g id="Rectangle_15-3" data-name="Rectangle 15" transform="translate(9.5 9.5)" fill="#fff" stroke="#f5f5f5" stroke-width="1">
          <rect width="93.44" height="32" rx="16" stroke="none"/>
          <rect x="0.5" y="0.5" width="92.44" height="31" rx="15.5" fill="none"/>
        </g>
      </g>
      <rect id="Rectangle_15-4" data-name="Rectangle 15" width="93.44" height="32" rx="16" transform="translate(0 0)" fill="#fff"/>
      <g transform="matrix(1, 0, 0, 1, -9.5, -9.5)" filter="url(#Rectangle_15-2)">
        <rect id="Rectangle_15-5" data-name="Rectangle 15" width="93.44" height="32" rx="16" transform="translate(9.5 9.5)" fill="#fff"/>
      </g>
      <g id="Rectangle_15-6" data-name="Rectangle 15" transform="translate(0 0)" fill="none" stroke="#f5f5f5" stroke-width="1">
        <rect width="93.44" height="32" rx="16" stroke="none"/>
        <rect x="0.5" y="0.5" width="92.44" height="31" rx="15.5" fill="none"/>
      </g>
    </g>
    <g id="Group_10" data-name="Group 10" transform="translate(13.989 7.45)">
      <g id="Group_9" data-name="Group 9" clip-path="url(#clip-path)">
        <path id="Path_85" data-name="Path 85" d="M.652,70.518c-1.307,2.269-.476,5.711.969,7.8C2.343,79.36,3.074,80.3,4.074,80.3h.057a3.026,3.026,0,0,0,1.138-.3,3.118,3.118,0,0,1,1.349-.32,2.933,2.933,0,0,1,1.283.309,2.718,2.718,0,0,0,1.23.295c1.127-.021,1.819-1.032,2.43-1.924a8.525,8.525,0,0,0,1.065-2.181l0-.014A.127.127,0,0,0,12.563,76l-.009,0A3.231,3.231,0,0,1,10.6,73.041a3.325,3.325,0,0,1,1.572-2.78l.012-.008a.126.126,0,0,0,.036-.178,3.657,3.657,0,0,0-2.877-1.562c-.082-.008-.166-.012-.251-.012a5.013,5.013,0,0,0-1.806.451,2.9,2.9,0,0,1-.865.258,2.829,2.829,0,0,1-.895-.262,4.337,4.337,0,0,0-1.577-.4h-.04a3.866,3.866,0,0,0-3.254,1.97" transform="translate(0 -64.833)"/>
        <path id="Path_86" data-name="Path 86" d="M118.113,0a3.53,3.53,0,0,0-2.331,1.2,3.307,3.307,0,0,0-.838,2.453.127.127,0,0,0,.116.11c.054,0,.109.006.164.006a2.987,2.987,0,0,0,2.2-1.129,3.487,3.487,0,0,0,.82-2.523A.127.127,0,0,0,118.113,0" transform="translate(-108.772 0)"/>
        <path id="Path_87" data-name="Path 87" d="M346.279,9.112h1.516a2.217,2.217,0,0,1,1.059.246,1.8,1.8,0,0,1,.72.681,2.025,2.025,0,0,1,0,1.975,1.8,1.8,0,0,1-.72.681,2.218,2.218,0,0,1-1.059.246h-1.516Zm1.494,3.578a2,2,0,0,0,.935-.211,1.506,1.506,0,0,0,.624-.588,1.817,1.817,0,0,0,0-1.729,1.506,1.506,0,0,0-.624-.588,2,2,0,0,0-.935-.211h-1.215V12.69Z" transform="translate(-327.743 -8.624)"/>
        <path id="Path_88" data-name="Path 88" d="M423.94,29.61a1.338,1.338,0,0,1-.511-.517,1.592,1.592,0,0,1,0-1.494,1.339,1.339,0,0,1,.511-.517,1.527,1.527,0,0,1,1.461,0,1.341,1.341,0,0,1,.512.517,1.591,1.591,0,0,1,0,1.494,1.339,1.339,0,0,1-.512.517,1.527,1.527,0,0,1-1.461,0m1.319-.213a1.1,1.1,0,0,0,.41-.427,1.368,1.368,0,0,0,0-1.247,1.1,1.1,0,0,0-.41-.427,1.206,1.206,0,0,0-1.176,0,1.1,1.1,0,0,0-.41.427,1.368,1.368,0,0,0,0,1.247,1.1,1.1,0,0,0,.41.427,1.206,1.206,0,0,0,1.176,0" transform="translate(-400.586 -25.456)"/>
        <path id="Path_89" data-name="Path 89" d="M485.7,27.3l-1.083,2.856h-.257l-.963-2.478-.968,2.478h-.251L481.093,27.3h.263l.952,2.55.974-2.55h.235l.969,2.544.963-2.544Z" transform="translate(-455.34 -25.843)"/>
        <path id="Path_90" data-name="Path 90" d="M581.253,27.207a1.214,1.214,0,0,1,.312.9v1.669h-.274V28.126a1.014,1.014,0,0,0-.243-.733.9.9,0,0,0-.681-.252,1.05,1.05,0,0,0-.793.3,1.118,1.118,0,0,0-.29.81v1.521h-.274V26.917h.263v.618a1.087,1.087,0,0,1,.44-.471,1.358,1.358,0,0,1,.692-.17,1.145,1.145,0,0,1,.848.312" transform="translate(-548.016 -25.455)"/>
        <rect id="Rectangle_16" data-name="Rectangle 16" width="0.274" height="4.06" transform="translate(34.676 0.258)"/>
        <path id="Path_91" data-name="Path 91" d="M669.343,29.61a1.338,1.338,0,0,1-.512-.517,1.592,1.592,0,0,1,0-1.494,1.339,1.339,0,0,1,.512-.517,1.527,1.527,0,0,1,1.461,0,1.341,1.341,0,0,1,.511.517,1.592,1.592,0,0,1,0,1.494,1.339,1.339,0,0,1-.511.517,1.527,1.527,0,0,1-1.461,0m1.319-.213a1.1,1.1,0,0,0,.41-.427,1.37,1.37,0,0,0,0-1.247,1.1,1.1,0,0,0-.41-.427,1.206,1.206,0,0,0-1.176,0,1.1,1.1,0,0,0-.41.427,1.368,1.368,0,0,0,0,1.247,1.1,1.1,0,0,0,.41.427,1.206,1.206,0,0,0,1.176,0" transform="translate(-632.853 -25.456)"/>
        <path id="Path_92" data-name="Path 92" d="M734.868,27.166a1.049,1.049,0,0,1,.285.8v1.811h-.263v-.509a.949.949,0,0,1-.4.391,1.323,1.323,0,0,1-.629.14,1.159,1.159,0,0,1-.752-.224.776.776,0,0,1-.022-1.168,1.223,1.223,0,0,1,.813-.222h.979v-.23a.8.8,0,0,0-.216-.607.877.877,0,0,0-.632-.208,1.524,1.524,0,0,0-.544.1,1.367,1.367,0,0,0-.44.263l-.137-.2a1.519,1.519,0,0,1,.514-.3,1.869,1.869,0,0,1,.629-.107,1.137,1.137,0,0,1,.815.271m-.364,2.24a1,1,0,0,0,.375-.476v-.536h-.974a.969.969,0,0,0-.61.153.513.513,0,0,0-.189.421.527.527,0,0,0,.208.44.936.936,0,0,0,.586.161,1.074,1.074,0,0,0,.6-.164" transform="translate(-693.605 -25.455)"/>
        <path id="Path_93" data-name="Path 93" d="M794.35,4.818v4.06h-.268V8.2a1.228,1.228,0,0,1-.476.514,1.344,1.344,0,0,1-.7.181,1.42,1.42,0,0,1-.722-.186,1.33,1.33,0,0,1-.506-.514,1.512,1.512,0,0,1-.183-.75,1.527,1.527,0,0,1,.183-.752,1.307,1.307,0,0,1,.506-.514A1.437,1.437,0,0,1,792.912,6a1.318,1.318,0,0,1,.687.181,1.286,1.286,0,0,1,.479.5V4.818ZM793.516,8.5a1.1,1.1,0,0,0,.41-.427,1.369,1.369,0,0,0,0-1.247,1.1,1.1,0,0,0-.41-.427,1.206,1.206,0,0,0-1.176,0,1.1,1.1,0,0,0-.41.427,1.368,1.368,0,0,0,0,1.247,1.1,1.1,0,0,0,.41.427,1.206,1.206,0,0,0,1.176,0" transform="translate(-749.132 -4.56)"/>
        <path id="Path_94" data-name="Path 94" d="M887.455,29.61a1.337,1.337,0,0,1-.511-.517,1.591,1.591,0,0,1,0-1.494,1.338,1.338,0,0,1,.511-.517,1.527,1.527,0,0,1,1.461,0,1.342,1.342,0,0,1,.512.517,1.592,1.592,0,0,1,0,1.494,1.341,1.341,0,0,1-.512.517,1.527,1.527,0,0,1-1.461,0m1.318-.213a1.1,1.1,0,0,0,.411-.427,1.369,1.369,0,0,0,0-1.247,1.1,1.1,0,0,0-.411-.427,1.205,1.205,0,0,0-1.176,0,1.1,1.1,0,0,0-.41.427,1.368,1.368,0,0,0,0,1.247,1.1,1.1,0,0,0,.41.427,1.205,1.205,0,0,0,1.176,0" transform="translate(-839.29 -25.456)"/>
        <path id="Path_95" data-name="Path 95" d="M958.2,27.207a1.214,1.214,0,0,1,.312.9v1.669h-.274V28.126a1.014,1.014,0,0,0-.243-.733.9.9,0,0,0-.681-.252,1.05,1.05,0,0,0-.793.3,1.117,1.117,0,0,0-.29.81v1.521h-.274V26.917h.263v.618a1.087,1.087,0,0,1,.44-.471,1.357,1.357,0,0,1,.692-.17,1.146,1.146,0,0,1,.848.312" transform="translate(-904.783 -25.455)"/>
        <path id="Path_96" data-name="Path 96" d="M1044.1,18.951a.682.682,0,0,1-.26.15,1.021,1.021,0,0,1-.325.052.708.708,0,0,1-.777-.777V16.511h-.526v-.235h.526v-.624h.273v.624h.908v.235h-.908v1.838a.6.6,0,0,0,.134.424.513.513,0,0,0,.4.145.636.636,0,0,0,.443-.159Z" transform="translate(-986.427 -14.814)"/>
        <path id="Path_97" data-name="Path 97" d="M1093.929,6.312a1.214,1.214,0,0,1,.312.9V8.878h-.273V7.231a1.014,1.014,0,0,0-.243-.733.9.9,0,0,0-.681-.252,1.051,1.051,0,0,0-.794.3,1.118,1.118,0,0,0-.29.81V8.878h-.274V4.818h.274v1.8a1.046,1.046,0,0,1,.438-.457,1.383,1.383,0,0,1,.684-.161,1.146,1.146,0,0,1,.848.312" transform="translate(-1033.249 -4.56)"/>
        <path id="Path_98" data-name="Path 98" d="M1157.472,28.412h-2.457a1.192,1.192,0,0,0,.169.594,1.087,1.087,0,0,0,.43.4,1.291,1.291,0,0,0,.61.142,1.307,1.307,0,0,0,.517-.1,1.008,1.008,0,0,0,.4-.3l.159.18a1.216,1.216,0,0,1-.468.345,1.63,1.63,0,0,1-1.371-.066,1.347,1.347,0,0,1-.522-.514,1.475,1.475,0,0,1-.189-.75,1.553,1.553,0,0,1,.178-.747,1.312,1.312,0,0,1,.49-.517,1.416,1.416,0,0,1,1.4,0,1.3,1.3,0,0,1,.487.512,1.538,1.538,0,0,1,.178.744Zm-1.9-1.141a1.022,1.022,0,0,0-.386.377,1.23,1.23,0,0,0-.167.55h2.189a1.151,1.151,0,0,0-.164-.547,1.063,1.063,0,0,0-.93-.514,1.093,1.093,0,0,0-.541.134" transform="translate(-1092.935 -25.456)"/>
        <path id="Path_99" data-name="Path 99" d="M330.529,149.886h-3.272l-.645,1.515h-1.253l2.945-6.545h1.2l2.955,6.545h-1.272Zm-.4-.954-1.234-2.861-1.225,2.861Z" transform="translate(-307.943 -137.102)"/>
        <path id="Path_100" data-name="Path 100" d="M475.452,173.12a2.293,2.293,0,0,1,.9.9,2.9,2.9,0,0,1,0,2.679,2.282,2.282,0,0,1-.9.9,2.65,2.65,0,0,1-1.3.318,2.016,2.016,0,0,1-1.6-.673v2.422H471.38v-6.807h1.113v.654a1.807,1.807,0,0,1,.715-.533,2.417,2.417,0,0,1,.94-.178,2.652,2.652,0,0,1,1.3.318m-.374,3.366a1.746,1.746,0,0,0,0-2.263,1.413,1.413,0,0,0-1.061-.43,1.5,1.5,0,0,0-.757.192,1.386,1.386,0,0,0-.533.547,1.822,1.822,0,0,0,0,1.646,1.383,1.383,0,0,0,.533.547,1.5,1.5,0,0,0,.757.192,1.412,1.412,0,0,0,1.061-.43" transform="translate(-446.147 -163.552)"/>
        <path id="Path_101" data-name="Path 101" d="M595.271,173.12a2.3,2.3,0,0,1,.9.9,2.9,2.9,0,0,1,0,2.679,2.284,2.284,0,0,1-.9.9,2.65,2.65,0,0,1-1.3.318,2.016,2.016,0,0,1-1.6-.673v2.422H591.2v-6.807h1.113v.654a1.809,1.809,0,0,1,.715-.533,2.417,2.417,0,0,1,.94-.178,2.652,2.652,0,0,1,1.3.318m-.374,3.366a1.746,1.746,0,0,0,0-2.263,1.413,1.413,0,0,0-1.061-.43,1.5,1.5,0,0,0-.757.192,1.386,1.386,0,0,0-.533.547,1.822,1.822,0,0,0,0,1.646,1.383,1.383,0,0,0,.533.547,1.5,1.5,0,0,0,.757.192,1.413,1.413,0,0,0,1.061-.43" transform="translate(-559.553 -163.552)"/>
        <path id="Path_102" data-name="Path 102" d="M752.134,149.626a3.051,3.051,0,0,1-1.117-.57l.421-.944a3.312,3.312,0,0,0,.986.519,3.582,3.582,0,0,0,1.173.2,2.027,2.027,0,0,0,1.089-.234.708.708,0,0,0,.36-.617.6.6,0,0,0-.2-.463,1.411,1.411,0,0,0-.509-.285q-.309-.1-.842-.234a9.781,9.781,0,0,1-1.211-.355,1.991,1.991,0,0,1-.795-.556,1.5,1.5,0,0,1-.332-1.024,1.745,1.745,0,0,1,.295-.986,1.992,1.992,0,0,1,.888-.706,3.6,3.6,0,0,1,1.454-.262,4.7,4.7,0,0,1,1.178.15,3.256,3.256,0,0,1,1,.43l-.383.944a3.8,3.8,0,0,0-.9-.383,3.363,3.363,0,0,0-.907-.131,1.9,1.9,0,0,0-1.07.243.75.75,0,0,0-.351.645.583.583,0,0,0,.2.458,1.45,1.45,0,0,0,.509.28q.309.1.841.234a8.84,8.84,0,0,1,1.2.351,2.051,2.051,0,0,1,.8.556,1.467,1.467,0,0,1,.332,1.01,1.723,1.723,0,0,1-.294.982,2,2,0,0,1-.893.7,3.635,3.635,0,0,1-1.459.262,5,5,0,0,1-1.463-.215" transform="translate(-710.815 -135.449)"/>
        <path id="Path_103" data-name="Path 103" d="M860.355,159.064a1.38,1.38,0,0,1-.5.252,2.254,2.254,0,0,1-.622.084,1.764,1.764,0,0,1-1.271-.43,1.655,1.655,0,0,1-.449-1.253v-2.4h-.823v-.935h.823v-1.141h1.169v1.141h1.337v.935h-1.337v2.375a.789.789,0,0,0,.178.556.666.666,0,0,0,.514.192,1.027,1.027,0,0,0,.655-.206Z" transform="translate(-810.832 -145.036)"/>
        <path id="Path_104" data-name="Path 104" d="M933.611,177.589a2.384,2.384,0,0,1-.949-.912,2.725,2.725,0,0,1,0-2.641,2.4,2.4,0,0,1,.949-.907,3.031,3.031,0,0,1,2.74,0,2.4,2.4,0,0,1,.949.907,2.725,2.725,0,0,1,0,2.641,2.385,2.385,0,0,1-.949.912,3.03,3.03,0,0,1-2.74,0m2.431-1.1a1.731,1.731,0,0,0,0-2.263,1.428,1.428,0,0,0-1.066-.43,1.413,1.413,0,0,0-1.061.43,1.747,1.747,0,0,0,0,2.263,1.413,1.413,0,0,0,1.061.43,1.427,1.427,0,0,0,1.066-.43" transform="translate(-882.415 -163.552)"/>
        <path id="Path_105" data-name="Path 105" d="M1055.554,172.8v1.113a1.477,1.477,0,0,0-.271-.028,1.412,1.412,0,0,0-1.066.4,1.585,1.585,0,0,0-.384,1.145v2.422h-1.169v-4.993h1.113v.729a1.947,1.947,0,0,1,1.776-.785" transform="translate(-996.316 -163.552)"/>
        <path id="Path_106" data-name="Path 106" d="M1121.68,175.728h-3.917a1.359,1.359,0,0,0,.538.874,1.762,1.762,0,0,0,1.08.323,1.819,1.819,0,0,0,1.356-.542l.626.72a2.107,2.107,0,0,1-.85.608,3.372,3.372,0,0,1-2.609-.122,2.354,2.354,0,0,1-.968-.912,2.571,2.571,0,0,1-.341-1.323,2.615,2.615,0,0,1,.332-1.314,2.357,2.357,0,0,1,.921-.912,2.686,2.686,0,0,1,1.328-.327,2.62,2.62,0,0,1,1.3.323,2.286,2.286,0,0,1,.9.907,2.75,2.75,0,0,1,.323,1.351q0,.122-.019.346m-3.454-1.66a1.4,1.4,0,0,0-.472.884h2.833a1.379,1.379,0,0,0-.458-.879,1.393,1.393,0,0,0-.953-.337,1.41,1.41,0,0,0-.949.332" transform="translate(-1056.823 -163.552)"/>
      </g>
    </g>
  </g>
</svg>
