<svg xmlns="http://www.w3.org/2000/svg" xmlns:xlink="http://www.w3.org/1999/xlink" width="112" height="53" viewBox="0 0 112 53">
  <defs>
    <filter id="Rectangle_23" x="0" y="0" width="112" height="53" filterUnits="userSpaceOnUse">
      <feOffset dx="1" dy="1" input="SourceAlpha"/>
      <feGaussianBlur stdDeviation="3.5" result="blur"/>
      <feFlood flood-opacity="0.122"/>
      <feComposite operator="in" in2="blur"/>
    </filter>
    <filter id="Rectangle_23-2" x="0" y="0" width="112" height="53" filterUnits="userSpaceOnUse">
      <feOffset dx="-4" dy="8" input="SourceAlpha"/>
      <feGaussianBlur stdDeviation="5" result="blur-2"/>
      <feFlood flood-opacity="0.039" result="color"/>
      <feComposite operator="out" in="SourceGraphic" in2="blur-2"/>
      <feComposite operator="in" in="color"/>
      <feComposite operator="in" in2="SourceGraphic"/>
    </filter>
    <clipPath id="clip-path">
      <rect id="Rectangle_22" data-name="Rectangle 22" width="65.967" height="15.285" fill="none"/>
    </clipPath>
  </defs>
  <g id="Group_341" data-name="Group 341" transform="translate(9.421 9.506)">
    <g data-type="innerShadowGroup">
      <g transform="matrix(1, 0, 0, 1, -9.42, -9.51)" filter="url(#Rectangle_23)">
        <g id="Rectangle_23-3" data-name="Rectangle 23" transform="translate(9.5 9.5)" fill="#fff" stroke="#f5f5f5" stroke-width="1">
          <rect width="91" height="32" rx="16" stroke="none"/>
          <rect x="0.5" y="0.5" width="90" height="31" rx="15.5" fill="none"/>
        </g>
      </g>
      <rect id="Rectangle_23-4" data-name="Rectangle 23" width="91" height="32" rx="16" transform="translate(0.079 -0.006)" fill="#fff"/>
      <g transform="matrix(1, 0, 0, 1, -9.42, -9.51)" filter="url(#Rectangle_23-2)">
        <rect id="Rectangle_23-5" data-name="Rectangle 23" width="91" height="32" rx="16" transform="translate(9.5 9.5)" fill="#fff"/>
      </g>
      <g id="Rectangle_23-6" data-name="Rectangle 23" transform="translate(0.079 -0.006)" fill="none" stroke="#f5f5f5" stroke-width="1">
        <rect width="91" height="32" rx="16" stroke="none"/>
        <rect x="0.5" y="0.5" width="90" height="31" rx="15.5" fill="none"/>
      </g>
    </g>
    <g id="Group_12" data-name="Group 12" transform="translate(12.454 8.613)">
      <g id="Group_11" data-name="Group 11" clip-path="url(#clip-path)">
        <path id="Path_107" data-name="Path 107" d="M178.468,114.556l-2.784-1.607-2.29,2.214,2.093,2.023,2.981-1.721a.525.525,0,0,0,0-.909" transform="translate(-164.977 -107.466)" fill="#f2cf33"/>
        <path id="Path_108" data-name="Path 108" d="M19.157,5.21,16.093,3.442,9.378,0l7.584,7.331Z" transform="translate(-8.923 -0.001)" fill="#86ed80"/>
        <path id="Path_109" data-name="Path 109" d="M11.674,173.293l6.615-3.644L21.144,168l-2-1.931Z" transform="translate(-11.107 -158.009)" fill="#d63947"/>
        <path id="Path_110" data-name="Path 110" d="M.007,6.111,0,20.917l7.662-7.407Z" transform="translate(0 -5.815)" fill="#78d3f8"/>
        <path id="Path_111" data-name="Path 111" d="M323.311,142.367h1.019v2.312a3.238,3.238,0,0,1-1.044.547,4.009,4.009,0,0,1-1.226.191,3.306,3.306,0,0,1-1.6-.385,2.861,2.861,0,0,1-1.119-1.065,3.1,3.1,0,0,1,0-3.066,2.856,2.856,0,0,1,1.123-1.065,3.349,3.349,0,0,1,1.612-.385,3.519,3.519,0,0,1,1.326.24,2.6,2.6,0,0,1,1,.7l-.679.663a2.179,2.179,0,0,0-1.6-.663,2.26,2.26,0,0,0-1.09.257,1.873,1.873,0,0,0-.746.721,2.073,2.073,0,0,0-.269,1.061,2.041,2.041,0,0,0,.269,1.044,1.929,1.929,0,0,0,.746.729,2.184,2.184,0,0,0,1.081.265,2.333,2.333,0,0,0,1.193-.3Z" transform="translate(-303.455 -132.681)"/>
        <path id="Path_112" data-name="Path 112" d="M450.834,172.711a2.112,2.112,0,0,1-.841-.808,2.416,2.416,0,0,1,0-2.341,2.122,2.122,0,0,1,.841-.8,2.685,2.685,0,0,1,2.428,0,2.125,2.125,0,0,1,.841.8,2.415,2.415,0,0,1,0,2.341,2.114,2.114,0,0,1-.841.808,2.686,2.686,0,0,1-2.428,0m2.154-.978a1.535,1.535,0,0,0,0-2.005,1.266,1.266,0,0,0-.945-.381,1.252,1.252,0,0,0-.941.381,1.547,1.547,0,0,0,0,2.005,1.251,1.251,0,0,0,.941.381,1.266,1.266,0,0,0,.945-.381" transform="translate(-427.863 -160.291)"/>
        <path id="Path_113" data-name="Path 113" d="M560.933,172.711a2.113,2.113,0,0,1-.841-.808,2.416,2.416,0,0,1,0-2.341,2.124,2.124,0,0,1,.841-.8,2.685,2.685,0,0,1,2.428,0,2.124,2.124,0,0,1,.841.8,2.416,2.416,0,0,1,0,2.341,2.113,2.113,0,0,1-.841.808,2.685,2.685,0,0,1-2.428,0m2.154-.978a1.534,1.534,0,0,0,0-2.005,1.266,1.266,0,0,0-.945-.381,1.252,1.252,0,0,0-.94.381,1.547,1.547,0,0,0,0,2.005,1.251,1.251,0,0,0,.94.381,1.265,1.265,0,0,0,.945-.381" transform="translate(-532.617 -160.291)"/>
        <path id="Path_114" data-name="Path 114" d="M674.647,168.519v3.754a2.088,2.088,0,0,1-2.386,2.337,4.427,4.427,0,0,1-1.21-.162,2.568,2.568,0,0,1-.945-.468l.464-.779a2.217,2.217,0,0,0,.733.385,2.878,2.878,0,0,0,.9.145,1.484,1.484,0,0,0,1.069-.331,1.355,1.355,0,0,0,.34-1.011v-.232a1.7,1.7,0,0,1-.646.439,2.278,2.278,0,0,1-.837.149,2.4,2.4,0,0,1-1.139-.269,2.021,2.021,0,0,1-.8-.758,2.268,2.268,0,0,1,0-2.233,2,2,0,0,1,.8-.75,2.431,2.431,0,0,1,1.139-.265,2.335,2.335,0,0,1,.874.157,1.615,1.615,0,0,1,.659.481v-.588Zm-1.4,3a1.2,1.2,0,0,0,.377-.916,1.173,1.173,0,0,0-.377-.9,1.524,1.524,0,0,0-1.939,0,1.172,1.172,0,0,0-.377.9,1.2,1.2,0,0,0,.377.916,1.511,1.511,0,0,0,1.939,0" transform="translate(-637.374 -160.291)"/>
        <rect id="Rectangle_19" data-name="Rectangle 19" width="1.036" height="6.148" transform="translate(38.632 6.504)"/>
        <path id="Path_115" data-name="Path 115" d="M842.192,171.063H838.72a1.2,1.2,0,0,0,.477.775,1.56,1.56,0,0,0,.957.286,1.613,1.613,0,0,0,1.2-.481l.555.638a1.87,1.87,0,0,1-.754.539,2.988,2.988,0,0,1-2.312-.108,2.089,2.089,0,0,1-.858-.808,2.28,2.28,0,0,1-.3-1.172,2.314,2.314,0,0,1,.294-1.164,2.088,2.088,0,0,1,.816-.808,2.38,2.38,0,0,1,1.176-.29,2.322,2.322,0,0,1,1.156.286,2.026,2.026,0,0,1,.8.8,2.438,2.438,0,0,1,.286,1.2c0,.072-.006.174-.017.307m-3.062-1.471a1.236,1.236,0,0,0-.418.783h2.51a1.222,1.222,0,0,0-.406-.779,1.235,1.235,0,0,0-.845-.3,1.249,1.249,0,0,0-.841.294" transform="translate(-797.022 -160.291)"/>
        <path id="Path_116" data-name="Path 116" d="M1004.229,141.406a1.906,1.906,0,0,1,.857.713,2.175,2.175,0,0,1,0,2.2,1.9,1.9,0,0,1-.857.717,3.211,3.211,0,0,1-1.313.249h-1.309v1.674h-1.077v-5.8h2.386a3.211,3.211,0,0,1,1.313.249m-.294,2.668a1.181,1.181,0,0,0,0-1.707,1.654,1.654,0,0,0-1.068-.3h-1.26v2.3h1.26a1.654,1.654,0,0,0,1.068-.3" transform="translate(-951.962 -134.305)"/>
        <rect id="Rectangle_20" data-name="Rectangle 20" width="1.036" height="6.148" transform="translate(54.483 6.504)"/>
        <path id="Path_117" data-name="Path 117" d="M1168.752,168.937a1.809,1.809,0,0,1,.518,1.413v2.593h-.978V172.4a1.205,1.205,0,0,1-.542.443,2.124,2.124,0,0,1-.85.153,2.081,2.081,0,0,1-.87-.17,1.345,1.345,0,0,1-.576-.472,1.2,1.2,0,0,1-.2-.684,1.171,1.171,0,0,1,.443-.957,2.2,2.2,0,0,1,1.4-.36h1.143v-.066a.906.906,0,0,0-.278-.713,1.2,1.2,0,0,0-.824-.249,2.381,2.381,0,0,0-.733.116,1.8,1.8,0,0,0-.609.323l-.406-.754a2.517,2.517,0,0,1,.837-.406,3.724,3.724,0,0,1,1.036-.141,2.157,2.157,0,0,1,1.5.468m-.944,3.132a.97.97,0,0,0,.426-.51v-.514h-1.069q-.9,0-.895.588a.528.528,0,0,0,.224.447,1.023,1.023,0,0,0,.621.166,1.337,1.337,0,0,0,.692-.178" transform="translate(-1108.69 -160.291)"/>
        <path id="Path_118" data-name="Path 118" d="M1261.711,169.493l-2.072,4.781a2.228,2.228,0,0,1-.7,1.015,1.688,1.688,0,0,1-1,.294,2.058,2.058,0,0,1-.655-.108,1.444,1.444,0,0,1-.53-.3l.414-.762a1.131,1.131,0,0,0,.352.224,1.079,1.079,0,0,0,.41.083.7.7,0,0,0,.452-.141,1.24,1.24,0,0,0,.327-.472l.075-.174-1.931-4.441h1.077l1.392,3.273,1.4-3.273Z" transform="translate(-1195.745 -161.266)"/>
        <path id="Path_119" data-name="Path 119" d="M324.606,4.085a1.431,1.431,0,0,1-.654-.153,1.73,1.73,0,0,1-.529-.411,1.944,1.944,0,0,1-.351-.581,1.837,1.837,0,0,1-.125-.669,1.886,1.886,0,0,1,.474-1.258,1.622,1.622,0,0,1,.526-.393,1.527,1.527,0,0,1,.659-.143,1.551,1.551,0,0,1,.852.216,1.386,1.386,0,0,1,.506.561l-.346.241a1.042,1.042,0,0,0-.426-.461,1.207,1.207,0,0,0-.6-.15A1.044,1.044,0,0,0,324.1,1a1.177,1.177,0,0,0-.379.313,1.434,1.434,0,0,0-.24.449,1.65,1.65,0,0,0-.083.521,1.552,1.552,0,0,0,.093.539,1.388,1.388,0,0,0,.263.446,1.264,1.264,0,0,0,.4.3,1.092,1.092,0,0,0,.486.11,1.166,1.166,0,0,0,.581-.155,1.76,1.76,0,0,0,.521-.476v.466a1.447,1.447,0,0,1-1.138.571m1.083-1.459h-.767V2.285h1.148V4.06h-.381Z" transform="translate(-307.271 -0.453)"/>
        <path id="Path_120" data-name="Path 120" d="M403.838,4.149v.4h-2.416V.991h2.371v.4h-1.92V2.545h1.669v.376h-1.669V4.149Z" transform="translate(-381.937 -0.943)"/>
        <path id="Path_121" data-name="Path 121" d="M459.779,1.393h-1.228V4.55H458.1V1.393h-1.228v-.4h2.907Z" transform="translate(-434.695 -0.943)"/>
        <rect id="Rectangle_21" data-name="Rectangle 21" width="0.451" height="3.559" transform="translate(26.713 0.048)"/>
        <path id="Path_122" data-name="Path 122" d="M577.619,1.824V4.551h-.451V.992h.381l2.175,2.782V1h.451V4.551h-.411Z" transform="translate(-549.152 -0.944)"/>
        <path id="Path_123" data-name="Path 123" d="M679.725,4.085a1.523,1.523,0,0,1-.682-.15,1.658,1.658,0,0,1-.529-.409,1.917,1.917,0,0,1-.464-1.246,1.832,1.832,0,0,1,.128-.679,1.894,1.894,0,0,1,.356-.576,1.717,1.717,0,0,1,.534-.4,1.511,1.511,0,0,1,.667-.148,1.484,1.484,0,0,1,.682.155,1.682,1.682,0,0,1,.526.416,1.958,1.958,0,0,1,.341.581,1.873,1.873,0,0,1-.358,1.912,1.69,1.69,0,0,1-.534.4,1.533,1.533,0,0,1-.667.145m-1.218-1.8a1.589,1.589,0,0,0,.088.524,1.446,1.446,0,0,0,.248.449,1.2,1.2,0,0,0,.386.311,1.085,1.085,0,0,0,.5.115,1.068,1.068,0,0,0,.511-.12,1.2,1.2,0,0,0,.384-.321,1.462,1.462,0,0,0,.24-.451,1.6,1.6,0,0,0,.083-.506,1.572,1.572,0,0,0-.088-.521,1.462,1.462,0,0,0-.251-.449A1.191,1.191,0,0,0,680.224,1a1.153,1.153,0,0,0-1,0,1.181,1.181,0,0,0-.384.318,1.515,1.515,0,0,0-.243.449,1.549,1.549,0,0,0-.085.509" transform="translate(-645.138 -0.453)"/>
        <path id="Path_124" data-name="Path 124" d="M760.488,1.824V4.551h-.451V.992h.381l2.175,2.782V1h.451V4.551h-.411Z" transform="translate(-723.144 -0.944)"/>
      </g>
    </g>
  </g>
</svg>
