<?xml version="1.0" encoding="UTF-8"?><svg id="Layer_1" xmlns="http://www.w3.org/2000/svg" viewBox="0 0 563.9 174.29"><defs><style>.cls-1{fill:#f1f2f2;}</style></defs><g><path class="cls-1" d="m165.33,132.24c0-.99.4-2.01,1.2-3.06l21.33-31.42h-19.11c-.68,0-1.28-.32-1.8-.95-.52-.64-.78-1.38-.78-2.23,0-.91.25-1.68.74-2.32.49-.64,1.11-.96,1.85-.96h26.41c.74,0,1.39.27,1.94.82.55.55.83,1.25.83,2.09,0,1.05-.37,2.04-1.11,2.97l-21.42,31.42h21.14c.68,0,1.28.32,1.8.96.52.64.78,1.41.78,2.32s-.25,1.67-.74,2.28c-.49.61-1.11.91-1.85.91h-28.35c-.92,0-1.63-.29-2.12-.86-.49-.58-.74-1.23-.74-1.96Z"/><path class="cls-1" d="m205.86,131.28v-61.87c0-1.11.54-2,1.62-2.67,1.08-.68,2.48-1.01,4.2-1.01s3.17.34,4.34,1.02c1.17.68,1.75,1.57,1.75,2.67v28.32c1.05-1.99,2.6-3.66,4.66-5.03,2.06-1.37,4.45-2.05,7.16-2.05,4.49,0,8.36,1.85,11.59,5.54s4.85,8.09,4.85,13.2v7.57c0,4.99-1.63,9.39-4.89,13.2-3.26,3.82-7.02,5.73-11.26,5.73-2.77,0-5.36-.73-7.76-2.19-2.4-1.46-4.09-3.18-5.08-5.17v2.7c0,.93-.54,1.8-1.62,2.61-1.08.81-2.32,1.21-3.74,1.21-1.66,0-3.05-.38-4.16-1.15-1.11-.77-1.66-1.64-1.66-2.63Zm11.91-12.69c0,1.16.85,2.58,2.54,4.26,1.69,1.68,3.62,2.52,5.77,2.52s4.03-.87,5.63-2.61c1.6-1.74,2.4-3.68,2.4-5.82v-7.51c0-2.14-.8-4.05-2.4-5.73-1.6-1.68-3.51-2.52-5.72-2.52-2.09,0-3.99.76-5.68,2.29-1.69,1.53-2.54,3.51-2.54,5.95v9.16Z"/><path class="cls-1" d="m253.04,76.15c0-1.45.65-2.69,1.96-3.72,1.31-1.03,2.92-1.54,4.83-1.54,1.72,0,3.19.51,4.4,1.54,1.21,1.03,1.82,2.27,1.82,3.72s-.61,2.62-1.82,3.68c-1.21,1.06-2.68,1.59-4.4,1.59-1.92,0-3.53-.53-4.83-1.59-1.31-1.06-1.96-2.28-1.96-3.68Zm1.11,55.12v-36.38c0-1.11.53-2,1.6-2.68,1.06-.68,2.43-1.01,4.08-1.01s3.03.34,4.13,1.01c1.09.68,1.64,1.57,1.64,2.68v36.38c0,.92-.58,1.79-1.73,2.59-1.15.8-2.5,1.2-4.04,1.2s-2.94-.38-4.04-1.16c-1.09-.77-1.64-1.65-1.64-2.63Z"/><path class="cls-1" d="m275.66,131.27v-61.95c0-1.11.54-2,1.62-2.68,1.08-.68,2.51-1.01,4.29-1.01,1.66,0,3.08.34,4.25,1.01,1.17.68,1.75,1.57,1.75,2.68v61.95c0,.92-.6,1.79-1.8,2.59-1.2.8-2.6,1.2-4.2,1.2s-3.06-.38-4.2-1.16c-1.14-.77-1.71-1.65-1.71-2.63Z"/><path class="cls-1" d="m295.97,116.96v-7.85c0-5.05,1.97-9.38,5.91-13.02,3.94-3.63,8.71-5.45,14.31-5.45,5.23,0,9.71,1.65,13.43,4.96,3.72,3.31,5.59,7.47,5.59,12.47,0,1.83-.23,3.34-.69,4.53-.46,1.19-1.17,2.03-2.12,2.51-.95.49-1.83.79-2.63.92-.8.12-1.85.18-3.14.18h-18.74v1.38c0,2.65.98,4.79,2.95,6.42,1.97,1.63,4.58,2.45,7.85,2.45,2.34,0,4.65-.58,6.92-1.75,2.28-1.17,3.75-1.75,4.43-1.75,1.29,0,2.37.6,3.23,1.8.86,1.2,1.29,2.35,1.29,3.46,0,1.73-1.56,3.43-4.66,5.12-3.11,1.69-6.97,2.54-11.59,2.54-6.59,0-11.96-1.74-16.11-5.22-4.15-3.48-6.23-8.05-6.23-13.71Zm11.91-7.75h13.48c.98,0,1.68-.16,2.08-.48.4-.32.6-.93.6-1.85,0-2.01-.78-3.65-2.35-4.92-1.57-1.26-3.49-1.9-5.77-1.9-2.16,0-4.03.62-5.63,1.85-1.6,1.24-2.4,2.86-2.4,4.87v2.42Z"/><path class="cls-1" d="m342.22,120.28v-44.26c0-1.03.61-1.9,1.85-2.6,1.23-.7,2.59-1.05,4.06-1.05,1.6,0,3,.34,4.2,1.02,1.2.68,1.8,1.52,1.8,2.53v15.28h10.89c.92,0,1.66.47,2.22,1.4s.83,2.04.83,3.31-.28,2.37-.83,3.31c-.55.94-1.29,1.4-2.22,1.4h-10.89v19.25c0,1.7.38,2.9,1.15,3.6.77.7,2.11,1.05,4.02,1.05h3.6c1.6,0,2.85.51,3.74,1.54.89,1.03,1.34,2.25,1.34,3.67s-.45,2.74-1.34,3.77c-.89,1.03-2.14,1.54-3.74,1.54h-3.6c-11.39,0-17.08-4.93-17.08-14.78Z"/><path class="cls-1" d="m372.23,116.96v-7.85c0-5.05,1.97-9.38,5.91-13.02,3.94-3.63,8.71-5.45,14.31-5.45,5.23,0,9.71,1.65,13.43,4.96,3.72,3.31,5.59,7.47,5.59,12.47,0,1.83-.23,3.34-.69,4.53-.46,1.19-1.17,2.03-2.12,2.51-.95.49-1.83.79-2.63.92-.8.12-1.85.18-3.14.18h-18.74v1.38c0,2.65.98,4.79,2.95,6.42,1.97,1.63,4.58,2.45,7.85,2.45,2.34,0,4.65-.58,6.92-1.75,2.28-1.17,3.75-1.75,4.43-1.75,1.29,0,2.37.6,3.23,1.8.86,1.2,1.29,2.35,1.29,3.46,0,1.73-1.56,3.43-4.66,5.12-3.11,1.69-6.97,2.54-11.59,2.54-6.59,0-11.96-1.74-16.11-5.22-4.15-3.48-6.23-8.05-6.23-13.71Zm11.91-7.75h13.48c.98,0,1.68-.16,2.08-.48.4-.32.6-.93.6-1.85,0-2.01-.78-3.65-2.35-4.92-1.57-1.26-3.49-1.9-5.77-1.9-2.16,0-4.03.62-5.63,1.85-1.6,1.24-2.4,2.86-2.4,4.87v2.42Z"/><path class="cls-1" d="m418.58,131.27v-36.38c0-1.11.54-2,1.62-2.68,1.08-.68,2.51-1.01,4.29-1.01,1.48,0,2.72.34,3.74,1.03,1.02.68,1.52,1.58,1.52,2.7v2.8c2.65-4.72,6.71-7.08,12.19-7.08,2.59,0,4.91.85,6.97,2.56,2.06,1.71,3.59,3.96,4.57,6.75,1.54-3.04,3.55-5.35,6.05-6.94s5.12-2.38,7.89-2.38c4.43,0,8.28,1.69,11.54,5.08,3.26,3.39,4.89,7.94,4.89,13.66v21.88c0,.92-.6,1.79-1.8,2.59-1.2.8-2.6,1.2-4.2,1.2s-2.91-.4-4.11-1.2c-1.2-.8-1.8-1.66-1.8-2.58v-21.82c0-2.58-.74-4.62-2.22-6.12-1.48-1.5-3.23-2.26-5.26-2.26s-3.68.75-5.12,2.26c-1.45,1.51-2.17,3.52-2.17,6.03v22.01c0,1.23-.59,2.15-1.75,2.76-1.17.62-2.58.92-4.25.92-1.54,0-2.91-.32-4.11-.97-1.2-.64-1.8-1.55-1.8-2.72v-21.91c0-2.46-.75-4.45-2.26-5.99-1.51-1.53-3.28-2.3-5.31-2.3s-3.66.74-5.08,2.21c-1.42,1.47-2.12,3.5-2.12,6.08v21.82c0,.92-.6,1.78-1.8,2.58-1.2.8-2.6,1.2-4.2,1.2s-3.06-.38-4.2-1.16c-1.14-.77-1.71-1.65-1.71-2.63Z"/><path class="cls-1" d="m491.52,131.27c0-1.22.46-2.27,1.39-3.13.92-.86,2.06-1.3,3.42-1.3s2.4.43,3.32,1.3c.92.86,1.38,1.91,1.38,3.13s-.46,2.19-1.38,3.05c-.92.86-2.03,1.29-3.32,1.29s-2.49-.43-3.42-1.29c-.92-.86-1.39-1.88-1.39-3.05Z"/><path class="cls-1" d="m509.89,153.43v-59.46c0-.8.35-1.45,1.06-1.94.71-.49,1.58-.74,2.63-.74s1.91.25,2.59.75c.68.5,1.02,1.16,1.02,1.97v3.84c1.11-2,2.74-3.68,4.89-5.05,2.15-1.37,4.65-2.06,7.48-2.06,4.62,0,8.54,1.74,11.77,5.22,3.23,3.48,4.85,7.65,4.85,12.51v9.42c0,4.68-1.63,8.83-4.89,12.46-3.26,3.63-7.05,5.45-11.36,5.45-2.71,0-5.19-.7-7.43-2.1-2.25-1.4-3.89-3.13-4.94-5.19v24.92c0,.68-.39,1.31-1.15,1.9-.77.59-1.68.88-2.72.88s-1.94-.28-2.68-.83c-.74-.55-1.11-1.2-1.11-1.94Zm7.66-33.09c0,1.53,1.06,3.32,3.19,5.37,2.12,2.05,4.54,3.07,7.25,3.07s5.22-1.12,7.34-3.35c2.12-2.23,3.19-4.76,3.19-7.57v-9.36c0-2.75-1.06-5.23-3.19-7.43-2.12-2.2-4.63-3.31-7.52-3.31-2.71,0-5.09.99-7.16,2.98-2.06,1.99-3.09,4.57-3.09,7.76v11.84Z"/><path class="cls-1" d="m556.24,132.29v-64.72c0-.8.35-1.45,1.06-1.94.71-.49,1.62-.74,2.72-.74s2.03.25,2.77.74c.74.49,1.11,1.14,1.11,1.94v64.72c0,.68-.38,1.31-1.15,1.89-.77.59-1.68.88-2.72.88s-1.94-.28-2.68-.83c-.74-.55-1.11-1.2-1.11-1.94Z"/></g><g><path class="cls-1" d="m106.04,27.21h-12.58l-4.72-15.33c-2.19-7.1-8.65-11.88-16.07-11.88-1.67,0-3.34.25-4.95.75L11.88,17.94c-4.29,1.32-7.82,4.24-9.92,8.21s-2.53,8.52-1.21,12.82l30.05,97.61v20.9c0,9.27,7.55,16.82,16.82,16.82h58.42c9.27,0,16.82-7.55,16.82-16.82v-32.17c0-.07,0-.13,0-.2V44.03c0-9.27-7.55-16.82-16.82-16.82ZM30.8,44.03v57.97L10.47,35.97c-.52-1.7-.35-3.5.48-5.07.83-1.57,2.22-2.72,3.92-3.25l55.84-17.19c.64-.2,1.3-.3,1.96-.3,2.93,0,5.49,1.89,6.35,4.7l3.8,12.34h-35.2c-9.27,0-16.82,7.55-16.82,16.82Zm81.89,113.44c0,3.67-2.98,6.65-6.65,6.65h-58.42c-3.67,0-6.65-2.98-6.65-6.65V44.03c0-3.67,2.98-6.65,6.65-6.65h58.42c3.67,0,6.65,2.98,6.65,6.65v113.44Z"/><rect class="cls-1" x="50.94" y="62.22" width="10.36" height="10.17"/><rect class="cls-1" x="71.65" y="62.22" width="10.36" height="10.17"/><rect class="cls-1" x="92.37" y="62.22" width="10.36" height="10.17"/></g></svg>